# xmcd
#
# Track frame offsets: 
#        150
#        20028
#        41762
#        49256
#        70332
#        92572
#        133782
#        148636
#        170999
#        191990
#        220259
#
# Disc length: 3204 seconds
#
# Revision: 0
# Processed by: cddbd v1.5.1PL0 Copyright (c) Steve Scherf et al.
# Submitted via: ExactAudioCopy v0.95a5
#
DISCID=b20c820b
DTITLE=San - Limboland
DYEAR=2003
DGENRE=Blues
TTITLE0=Lie
TTITLE1=Think Twice
TTITLE2=Black Coffee
TTITLE3=Stay
TTITLE4=Two Rights
TTITLE5=Old Man Time
TTITLE6=Lost Weekend
TTITLE7=Temple Of You
TTITLE8=Horizon
TTITLE9=Nevermore
TTITLE10=Here Today
EXTD=
EXTT0=
EXTT1=
EXTT2=
EXTT3=
EXTT4=
EXTT5=
EXTT6=
EXTT7=
EXTT8=
EXTT9=
EXTT10=
PLAYORDER=
